<?xml version="1.0" encoding="utf-8"?>
<!-- Generator: Adobe Illustrator 27.9.0, SVG Export Plug-In . SVG Version: 6.00 Build 0)  -->
<svg version="1.1" xmlns="http://www.w3.org/2000/svg" xmlns:xlink="http://www.w3.org/1999/xlink" x="0px" y="0px"
	 viewBox="0 0 35 35" style="enable-background:new 0 0 35 35;" xml:space="preserve">
<style type="text/css">
	.st0{display:none;}
	.st1{display:inline;}
	.st2{fill:none;stroke:#222222;stroke-width:2;stroke-linejoin:round;stroke-miterlimit:10;}
	.st3{fill:#E6E6E6;stroke:#222222;stroke-width:2;stroke-linejoin:round;stroke-miterlimit:10;}
	.st4{fill:#006DFF;}
</style>
<g id="icon" class="st0">
	<g class="st1">
		<path class="st2" d="M5.9,27.2c-0.9,0-1.7-0.4-2.1-1.2l0,0c-0.5-0.9-0.4-2.1,0.4-2.8l2.2-2v-8.1c0-6.2,5.2-11.6,11.1-11.6
			s11.1,5.4,11.1,11.6v8.1l2.2,2c0.8,0.7,1,1.9,0.4,2.8l0,0c-0.4,0.7-1.2,1.2-2.1,1.2H5.9z"/>
		<path class="st3" d="M23.6,27.3c0,3.4-2.7,6.2-6.1,6.2s-6.1-2.8-6.1-6.2H23.6z"/>
	</g>
</g>
<g id="Layer_2">
	<g>
		<path class="st4" d="M5.9,27.2c-0.9,0-1.7-0.4-2.1-1.2l0,0c-0.5-0.9-0.4-2.1,0.4-2.8l2.2-2v-8.1c0-6.2,5.2-11.6,11.1-11.6
			s11.1,5.4,11.1,11.6v8.1l2.2,2c0.8,0.7,1,1.9,0.4,2.8l0,0c-0.4,0.7-1.2,1.2-2.1,1.2H5.9z"/>
		<path class="st2" d="M5.9,27.2c-0.9,0-1.7-0.4-2.1-1.2l0,0c-0.5-0.9-0.4-2.1,0.4-2.8l2.2-2v-8.1c0-6.2,5.2-11.6,11.1-11.6
			s11.1,5.4,11.1,11.6v8.1l2.2,2c0.8,0.7,1,1.9,0.4,2.8l0,0c-0.4,0.7-1.2,1.2-2.1,1.2H5.9z"/>
		<path class="st3" d="M23.6,27.3c0,3.4-2.7,6.2-6.1,6.2s-6.1-2.8-6.1-6.2H23.6z"/>
	</g>
</g>
</svg>
