<?xml version="1.0" encoding="utf-8"?>
<!-- Generator: Adobe Illustrator 27.9.0, SVG Export Plug-In . SVG Version: 6.00 Build 0)  -->
<svg version="1.1" xmlns="http://www.w3.org/2000/svg" xmlns:xlink="http://www.w3.org/1999/xlink" x="0px" y="0px"
	 viewBox="0 0 35 35" style="enable-background:new 0 0 35 35;" xml:space="preserve">
<style type="text/css">
	.st0{display:none;}
	.st1{display:inline;}
	.st2{fill:none;stroke:#222222;stroke-width:2;stroke-linejoin:round;stroke-miterlimit:10;}
	.st3{fill:#E6E6E6;stroke:#222222;stroke-width:2;stroke-linejoin:round;stroke-miterlimit:10;}
	.st4{fill:#006DFF;}
	.st5{display:inline;fill:#006DFF;}
	.st6{fill:none;stroke:#000000;stroke-width:2;stroke-linecap:round;stroke-linejoin:round;stroke-miterlimit:10;}
	.st7{fill:#006DFF;stroke:#222222;stroke-width:2;stroke-linejoin:round;stroke-miterlimit:10;}
	.st8{fill:#222222;}
</style>
<g id="icon" class="st0">
	<g class="st1">
		<path class="st2" d="M5.9,27.2c-0.9,0-1.7-0.4-2.1-1.2l0,0c-0.5-0.9-0.4-2.1,0.4-2.8l2.2-2v-8.1c0-6.2,5.2-11.6,11.1-11.6
			s11.1,5.4,11.1,11.6v8.1l2.2,2c0.8,0.7,1,1.9,0.4,2.8l0,0c-0.4,0.7-1.2,1.2-2.1,1.2H5.9z"/>
		<path class="st3" d="M23.6,27.3c0,3.4-2.7,6.2-6.1,6.2s-6.1-2.8-6.1-6.2H23.6z"/>
	</g>
</g>
<g id="Layer_2" class="st0">
	<g class="st1">
		<path class="st4" d="M5.9,27.2c-0.9,0-1.7-0.4-2.1-1.2l0,0c-0.5-0.9-0.4-2.1,0.4-2.8l2.2-2v-8.1c0-6.2,5.2-11.6,11.1-11.6
			s11.1,5.4,11.1,11.6v8.1l2.2,2c0.8,0.7,1,1.9,0.4,2.8l0,0c-0.4,0.7-1.2,1.2-2.1,1.2H5.9z"/>
		<path class="st2" d="M5.9,27.2c-0.9,0-1.7-0.4-2.1-1.2l0,0c-0.5-0.9-0.4-2.1,0.4-2.8l2.2-2v-8.1c0-6.2,5.2-11.6,11.1-11.6
			s11.1,5.4,11.1,11.6v8.1l2.2,2c0.8,0.7,1,1.9,0.4,2.8l0,0c-0.4,0.7-1.2,1.2-2.1,1.2H5.9z"/>
		<path class="st3" d="M23.6,27.3c0,3.4-2.7,6.2-6.1,6.2s-6.1-2.8-6.1-6.2H23.6z"/>
	</g>
</g>
<g id="Layer_3" class="st0">
	<path class="st5" d="M29.2,12.8c0.1,0,0.3,0,0.4,0c2.1,0,3.9,1.5,3.9,3.2v5.6c0,1.8-1.7,3.2-3.9,3.2c-0.1,0-0.4,0-0.4,0"/>
	<path class="st5" d="M5.8,12.8c-0.1,0-0.3,0-0.4,0c-2.1,0-3.9,1.5-3.9,3.2v5.6c0,1.8,1.7,3.2,3.9,3.2c0.1,0,0.3,0,0.4,0l0.7-0.1"/>
	<g class="st1">
		<path class="st2" d="M29.2,12.8c0.1,0,0.3,0,0.4,0c2.1,0,3.9,1.5,3.9,3.2v5.6c0,1.8-1.7,3.2-3.9,3.2c-0.1,0-0.4,0-0.4,0"/>
		<path class="st2" d="M5.8,12.8c-0.1,0-0.3,0-0.4,0c-2.1,0-3.9,1.5-3.9,3.2v5.6c0,1.8,1.7,3.2,3.9,3.2c0.1,0,0.3,0,0.4,0l0.7-0.1"
			/>
		<path class="st3" d="M23.1,31.3c0,1.2-1,2.2-2.2,2.2h-6.1c-1.2,0-2.2-1-2.2-2.2l0,0c0-1.2,1-2.2,2.2-2.2H21
			C22.2,29.2,23.1,30.1,23.1,31.3L23.1,31.3z"/>
		<path class="st6" d="M13.2,30c-4.2-0.6-7.4-4.2-7.4-8.6V10.1c0-4.8,3.9-8.6,8.6-8.6h6.1c4.8,0,8.6,3.9,8.6,8.6v14.7"/>
	</g>
</g>
<g id="Layer_4">
	<g>
		<path class="st3" d="M14.5,2.3c-7.2,0-13,5.8-13,13c0,3.3,1.2,6.3,3.3,8.6l-3.3,4.4h13c7.2,0,13-5.8,13-13S21.7,2.3,14.5,2.3z"/>
		<g>
			<g>
				<path class="st7" d="M33.5,19.3c0-5.5-3.4-10.2-8.2-12.1c-0.2-0.1-0.5-0.2-0.7-0.2c0,0,0,0,0,0.1c1.8,2.2,3,5.1,3,8.3
					c0,7.2-5.8,13-13,13h-3.2c0,0.1,0,0.2,0,0.2c2.4,2.4,5.6,3.8,9.2,3.8h13l-3.3-4.4C32.3,25.7,33.5,22.6,33.5,19.3z"/>
			</g>
			<circle class="st8" cx="18" cy="15.3" r="2"/>
			<circle class="st8" cx="11" cy="15.3" r="2"/>
		</g>
	</g>
</g>
</svg>
