<?xml version="1.0" encoding="utf-8"?>
<!-- Generator: Adobe Illustrator 27.9.0, SVG Export Plug-In . SVG Version: 6.00 Build 0)  -->
<svg version="1.1" id="Layer_1" xmlns="http://www.w3.org/2000/svg" xmlns:xlink="http://www.w3.org/1999/xlink" x="0px" y="0px"
	 viewBox="0 0 85 85" style="enable-background:new 0 0 85 85;" xml:space="preserve">
<style type="text/css">
	.st0{fill:none;stroke:#050505;stroke-linecap:round;stroke-linejoin:round;}
	.st1{display:none;}
	.st2{display:inline;fill:none;stroke:#010101;stroke-linecap:round;stroke-linejoin:round;}
	.st3{display:inline;}
	.st4{fill:none;stroke:#040404;stroke-linecap:round;stroke-linejoin:round;}
</style>
<g>
	<polygon class="st0" points="42.2,6.5 0.9,78 42.2,46.2 	"/>
	<polygon class="st0" points="83.5,78 42.2,6.5 42.2,46.2 	"/>
	<polygon class="st0" points="0.9,78 42.2,78 42.2,46.2 	"/>
	<polygon class="st0" points="42.2,46.2 42.2,78 83.5,78 	"/>
</g>
<g class="st1">
	<polygon class="st2" points="35.2,2.6 0.9,22.4 0.9,22.4 35.2,42.2 	"/>
	<polygon class="st2" points="69.4,62 69.5,62 69.5,22.4 35.2,2.6 35.2,42.2 	"/>
	<polygon class="st2" points="69.4,62 69.5,62 69.5,62 69.5,62 	"/>
	<polygon class="st2" points="35.2,62 69.4,62 35.2,42.2 	"/>
	<polygon class="st2" points="35.2,62 35.2,81.8 69.5,62 69.4,62 	"/>
	<polygon class="st2" points="35.2,42.2 0.9,22.4 0.9,62 35.2,62 	"/>
	<polygon class="st2" points="0.9,62 0.9,62 35.2,81.8 35.2,62 	"/>
</g>
<g class="st1">
	<g class="st3">
		<path class="st4" d="M15.1,16.4c0,3.8-3.1,6.8-6.8,6.8c-3.8,0-6.8-3.1-6.8-6.8c0-3.8,3.1-6.8,6.8-6.8
			C12.1,9.6,15.1,12.7,15.1,16.4z"/>
		<path class="st4" d="M37.4,16.4c0,3.8-3.1,6.8-6.8,6.8c-3.8,0-6.8-3.1-6.8-6.8c0-3.8,3.1-6.8,6.8-6.8
			C34.4,9.6,37.4,12.7,37.4,16.4z"/>
		<path class="st4" d="M59.7,16.4c0,3.8-3.1,6.8-6.8,6.8c-3.8,0-6.8-3.1-6.8-6.8c0-3.8,3.1-6.8,6.8-6.8
			C56.6,9.6,59.7,12.7,59.7,16.4z"/>
	</g>
	<g class="st3">
		<path class="st4" d="M15.1,42.2c0,3.8-3.1,6.8-6.8,6.8c-3.8,0-6.8-3.1-6.8-6.8c0-3.8,3.1-6.8,6.8-6.8
			C12.1,35.4,15.1,38.5,15.1,42.2z"/>
		<path class="st4" d="M37.4,42.2c0,3.8-3.1,6.8-6.8,6.8c-3.8,0-6.8-3.1-6.8-6.8c0-3.8,3.1-6.8,6.8-6.8
			C34.4,35.4,37.4,38.5,37.4,42.2z"/>
		<path class="st4" d="M59.7,42.2c0,3.8-3.1,6.8-6.8,6.8c-3.8,0-6.8-3.1-6.8-6.8c0-3.8,3.1-6.8,6.8-6.8
			C56.6,35.4,59.7,38.5,59.7,42.2z"/>
	</g>
	<g class="st3">
		<path class="st4" d="M15.1,68c0,3.8-3.1,6.8-6.8,6.8c-3.8,0-6.8-3.1-6.8-6.8c0-3.8,3.1-6.8,6.8-6.8C12.1,61.2,15.1,64.2,15.1,68z"
			/>
		<path class="st4" d="M37.4,68c0,3.8-3.1,6.8-6.8,6.8c-3.8,0-6.8-3.1-6.8-6.8c0-3.8,3.1-6.8,6.8-6.8C34.4,61.2,37.4,64.2,37.4,68z"
			/>
		<path class="st4" d="M59.7,68c0,3.8-3.1,6.8-6.8,6.8c-3.8,0-6.8-3.1-6.8-6.8c0-3.8,3.1-6.8,6.8-6.8C56.6,61.2,59.7,64.2,59.7,68z"
			/>
	</g>
</g>
<g class="st1">
	<polygon class="st2" points="24.3,74.9 24.4,74.9 24.4,74.8 	"/>
	<polygon class="st2" points="43.2,56.1 24.4,74.8 24.4,74.9 43.2,74.9 66.5,74.9 66.5,32.7 	"/>
	<polygon class="st2" points="24.4,51.6 24.4,74.8 66.5,32.7 66.5,9.6 	"/>
	<polygon class="st2" points="24.4,51.6 1.2,74.9 24.3,74.9 24.4,74.8 	"/>
	<polygon class="st2" points="43.2,32.9 66.5,9.6 43.3,9.6 43.2,9.7 	"/>
	<polygon class="st2" points="1.2,51.7 1.2,74.9 43.2,32.9 43.2,9.7 	"/>
	<polygon class="st2" points="1.2,9.6 1.2,51.7 43.2,9.7 43.2,9.6 	"/>
	<polygon class="st2" points="43.3,9.6 43.2,9.6 43.2,9.7 	"/>
</g>
</svg>
