<?xml version="1.0" encoding="utf-8"?>
<!-- Generator: Adobe Illustrator 27.9.0, SVG Export Plug-In . SVG Version: 6.00 Build 0)  -->
<svg version="1.1" id="Layer_1" xmlns="http://www.w3.org/2000/svg" xmlns:xlink="http://www.w3.org/1999/xlink" x="0px" y="0px"
	 viewBox="0 0 74.2 46.3" style="enable-background:new 0 0 74.2 46.3;" xml:space="preserve">
<style type="text/css">
	.st0{fill:#272727;}
</style>
<g>
	<path class="st0" d="M61.9,22.2v5.5c4-2.4,7.7-5.2,11.2-8.3v-8.8C69.6,15.2,65.8,19,61.9,22.2z"/>
	<path class="st0" d="M61.9,45.5h11.2V31.2c-3.5,2.2-7.2,4.2-11.2,5.9V45.5z"/>
	<path class="st0" d="M61.9,34c4-1.8,7.7-3.8,11.2-6.2v-6.4c-3.5,3-7.2,5.7-11.2,8V34z"/>
	<path class="st0" d="M61.9,0.7v20.4c3.9-3.3,7.7-7.2,11.2-11.8V0.7H61.9z"/>
	<path class="st0" d="M47.1,36.3c-3.1,1.1-6.3,2-9.7,2.7c0.4,0.8,0.8,1.5,1.4,2.1c5.8-0.9,11.3-2.2,16.4-3.9v-0.1c0,0-0.1,0-1.3,0
		C50.4,37.1,48.3,37.1,47.1,36.3z"/>
	<path class="st0" d="M45.4,32.4c-3.1,1.4-6.1,2.4-9,3.3c0.1,0.6,0.3,1.3,0.5,1.9C40,36.9,43,36,46,35.1
		C45.7,34.4,45.5,33.5,45.4,32.4z"/>
	<path class="st0" d="M50.3,45.5c4.1,0,4.9-0.4,4.9-0.4v-6c-4.7,1.5-9.6,2.8-14.8,3.6C42.7,44.5,46,45.5,50.3,45.5z"/>
	<path class="st0" d="M45.2,3l-15.7,17H36v12.2c0,1,0.1,1.9,0.2,2.7c3-0.9,6.1-2,9.1-3.3c0-0.7-0.1-1.4-0.1-2.2V20h9.9v-8.5h-9.9V3z
		"/>
	<path class="st0" d="M2.5,42.7v2.8h17.2c1.9,0,3.7-0.6,5.2-1.7c-1.4,0-2.8,0.1-4.1,0.1C13.3,43.9,6.9,43.2,2.5,42.7z"/>
	<path class="st0" d="M11.6,39.2c-3.5,0-6.6-0.2-9.1-0.4v0.9c5.8,0.7,15,1.3,25.5,0c0.2-0.6,0.4-1.3,0.5-2c-0.7,0.1-1.4,0.3-2.1,0.4
		C21,38.9,15.9,39.2,11.6,39.2z"/>
	<path class="st0" d="M19.7,25.1c0,0-8.2,0-8.2,0c-1.8,0-3.3-1.5-3.4-3.3v-0.1c0-1.9,1.5-3.4,3.4-3.4h13.6l2.3,0v-3.4
		c0-1,0-3.4,0-3.4l-2.3,0H10.2c-4.9,0-8.9,4-8.9,8.9c0,0,0,2.7,0,2.7c0,4.9,3.9,8.8,8.8,8.9c0,0,8.2,0,8.2,0c1.8,0,3.3,1.5,3.3,3.3
		v0.3c0,1-0.5,1.9-1.3,2.5c2.6-0.3,5.3-0.6,8.1-1.2c0-0.1,0-0.1,0-0.2c0,0,0,0,0,0c0,0,0,0,0,0V34c0,0,0,0,0,0c0,0,0,0,0,0
		C28.5,29.1,24.6,25.1,19.7,25.1z"/>
	<path class="st0" d="M2.5,40.7v0.9c5.4,0.7,13.8,1.5,23.6,1.1c0.6-0.6,1.1-1.3,1.5-2c-4.4,0.5-8.6,0.7-12.3,0.7
		C10.1,41.5,5.7,41.1,2.5,40.7z"/>
</g>
</svg>
