<?xml version="1.0" encoding="utf-8"?>
<!-- Generator: Adobe Illustrator 27.9.0, SVG Export Plug-In . SVG Version: 6.00 Build 0)  -->
<svg version="1.1" id="Layer_1" xmlns="http://www.w3.org/2000/svg" xmlns:xlink="http://www.w3.org/1999/xlink" x="0px" y="0px"
	 viewBox="0 0 143 73" style="enable-background:new 0 0 143 73;" xml:space="preserve">
<style type="text/css">
	.st0{fill:#1D396A;}
	.st1{fill:#ED1C24;}
	.st2{fill:url(#SVGID_1_);}
	.st3{fill:url(#SVGID_00000043454061175504052060000014387473766046144922_);}
	.st4{fill:url(#SVGID_00000079487021158018283450000013310329705917885076_);}
	.st5{fill:url(#SVGID_00000031207897458078502870000002562562789875754669_);}
</style>
<g>
	<g>
		<path class="st0" d="M47.5,16.9v4.3c3.1-1.9,6-4,8.7-6.4V7.9C53.5,11.4,50.6,14.4,47.5,16.9z"/>
		<path class="st0" d="M47.5,34.9h8.7V23.9c-2.7,1.7-5.6,3.3-8.7,4.6V34.9z"/>
		<path class="st0" d="M47.5,26.1c3.1-1.4,6-3,8.7-4.8v-5c-2.7,2.3-5.6,4.4-8.7,6.2V26.1z"/>
		<path class="st0" d="M47.5,0.2V16c3.1-2.6,6-5.6,8.7-9.2V0.2H47.5z"/>
	</g>
	<g>
		<path class="st0" d="M36,27.8c-2.4,0.8-4.9,1.5-7.5,2.1c0.3,0.6,0.7,1.2,1.1,1.7c4.5-0.7,8.8-1.7,12.8-3.1v-0.1c0,0-0.1,0-1,0
			C38.6,28.4,36.9,28.4,36,27.8z"/>
		<path class="st0" d="M27.4,15.1v9.5c0,0.7,0.1,1.4,0.1,2.1c2.3-0.7,4.7-1.6,7.1-2.6c0-0.5,0-1.1,0-1.7v-7.3v0H27.4z"/>
		<path class="st0" d="M34.6,24.8c-2.4,1.1-4.7,1.9-7,2.6c0.1,0.5,0.2,1,0.4,1.4c2.5-0.5,4.8-1.2,7.1-2
			C34.9,26.3,34.7,25.7,34.6,24.8z"/>
		<path class="st0" d="M38.5,34.9c3.2,0,3.8-0.3,3.8-0.3V30c-3.6,1.2-7.5,2.1-11.5,2.8C32.6,34.2,35.1,34.9,38.5,34.9z"/>
		<polygon class="st0" points="34.5,14.8 34.5,15.1 34.5,15.1 42.3,15.1 42.3,8.5 34.5,8.5 		"/>
		<polygon class="st1" points="22.3,15.1 27.4,15.1 34.5,15.1 34.5,14.8 34.5,8.5 34.5,1.9 		"/>
	</g>
	<g>
		<linearGradient id="SVGID_1_" gradientUnits="userSpaceOnUse" x1="9.9776" y1="34.9424" x2="9.9776" y2="8.5148">
			<stop  offset="0" style="stop-color:#2073AE"/>
			<stop  offset="0.246" style="stop-color:#1C79B4"/>
			<stop  offset="0.583" style="stop-color:#128AC6"/>
			<stop  offset="0.971" style="stop-color:#01A6E3"/>
			<stop  offset="1" style="stop-color:#00A8E5"/>
		</linearGradient>
		<path class="st2" d="M1.3,32.8v2.2h13.3c1.5,0,2.9-0.5,4-1.3c-1.1,0-2.2,0.1-3.2,0.1C9.7,33.7,4.7,33.2,1.3,32.8z"/>
		
			<linearGradient id="SVGID_00000062902062213079120080000016983979695684913039_" gradientUnits="userSpaceOnUse" x1="11.3946" y1="34.9429" x2="11.3946" y2="8.5127">
			<stop  offset="0" style="stop-color:#2073AE"/>
			<stop  offset="0.246" style="stop-color:#1C79B4"/>
			<stop  offset="0.583" style="stop-color:#128AC6"/>
			<stop  offset="0.971" style="stop-color:#01A6E3"/>
			<stop  offset="1" style="stop-color:#00A8E5"/>
		</linearGradient>
		<path style="fill:url(#SVGID_00000062902062213079120080000016983979695684913039_);" d="M8.4,30.1c-2.7,0-5.1-0.2-7.1-0.3v0.7
			c4.5,0.5,11.6,1,19.8,0c0.2-0.5,0.3-1,0.4-1.6c-0.5,0.1-1.1,0.2-1.6,0.3C15.7,29.9,11.8,30.1,8.4,30.1z"/>
		
			<linearGradient id="SVGID_00000181070429383925389850000013602365117608467613_" gradientUnits="userSpaceOnUse" x1="10.9803" y1="34.9425" x2="10.9803" y2="8.5143">
			<stop  offset="0" style="stop-color:#2073AE"/>
			<stop  offset="0.246" style="stop-color:#1C79B4"/>
			<stop  offset="0.583" style="stop-color:#128AC6"/>
			<stop  offset="0.971" style="stop-color:#01A6E3"/>
			<stop  offset="1" style="stop-color:#00A8E5"/>
		</linearGradient>
		<path style="fill:url(#SVGID_00000181070429383925389850000013602365117608467613_);" d="M14.7,19.1c0,0-6.4,0-6.4,0
			c-1.4,0-2.6-1.2-2.6-2.6v-0.1c0-1.4,1.2-2.6,2.6-2.6h10.6l1.8,0v-2.6c0-0.8,0-2.6,0-2.6l-1.8,0H7.3c-3.8,0-6.9,3.1-6.9,6.9
			c0,0,0,2.1,0,2.1c0,3.8,3.1,6.8,6.8,6.9c0,0,6.4,0,6.4,0c1.4,0,2.5,1.1,2.6,2.5v0.2c0,0.8-0.4,1.5-1,1.9c2-0.2,4.1-0.5,6.3-0.9
			c0,0,0-0.1,0-0.1c0,0,0,0,0,0c0,0,0,0,0,0v-2c0,0,0,0,0,0c0,0,0,0,0,0C21.5,22.2,18.5,19.1,14.7,19.1z"/>
		
			<linearGradient id="SVGID_00000175281102371416987130000017023952619045784724_" gradientUnits="userSpaceOnUse" x1="11.018" y1="34.9428" x2="11.018" y2="8.5121">
			<stop  offset="0" style="stop-color:#2073AE"/>
			<stop  offset="0.246" style="stop-color:#1C79B4"/>
			<stop  offset="0.583" style="stop-color:#128AC6"/>
			<stop  offset="0.971" style="stop-color:#01A6E3"/>
			<stop  offset="1" style="stop-color:#00A8E5"/>
		</linearGradient>
		<path style="fill:url(#SVGID_00000175281102371416987130000017023952619045784724_);" d="M1.3,31.3V32c4.2,0.6,10.8,1.2,18.3,0.9
			c0.4-0.5,0.8-1,1.1-1.6c-3.4,0.4-6.7,0.6-9.6,0.6C7.2,31.8,3.9,31.6,1.3,31.3z"/>
	</g>
</g>
<g>
	<path d="M7.5,46.8H2.8v6h0.9c0.9,0,1.8,0,2.6-0.1c0.8-0.1,1.6-0.2,2.4-0.3l0.2,1.2c-0.7,0.1-1.5,0.2-2.4,0.3C5.4,54,4.4,54,3.3,54
		h-2v-8.5h6.2V46.8z M9.9,57.5V44.4h1.4v13.1H9.9z"/>
	<path d="M17.5,51c-0.1,0.2-0.2,0.3-0.3,0.5c-0.1,0.2-0.3,0.4-0.5,0.6c-0.3,0.3-0.6,0.7-1,1c-0.4,0.4-0.8,0.8-1.3,1.2l-0.9-1
		c0.4-0.4,0.8-0.8,1.2-1.1s0.7-0.7,1-1.1c0.2-0.3,0.4-0.5,0.6-0.7c0.1-0.2,0.3-0.4,0.3-0.6c0.1-0.2,0.1-0.4,0.2-0.6
		c0-0.2,0-0.4,0-0.7v-1.9H14v-1.2h7v1.2h-2.7v1.9c0,0.3,0,0.5,0,0.7c0,0.2,0.1,0.4,0.2,0.6c0.1,0.2,0.2,0.4,0.3,0.6
		c0.2,0.2,0.4,0.4,0.6,0.7c0.3,0.3,0.6,0.6,0.9,1c0.3,0.3,0.7,0.6,1.1,1l-0.9,1c-0.5-0.4-0.9-0.8-1.2-1.1c-0.3-0.3-0.6-0.6-0.9-0.9
		c-0.2-0.2-0.4-0.4-0.5-0.6C17.7,51.3,17.6,51.2,17.5,51L17.5,51z M22.8,57.5V44.4h1.4v13.1H22.8z"/>
	<path d="M32.3,48.3h-4.2v1.2c0.7,0,1.3,0,1.8,0c0.5,0,1,0,1.4,0c0.4,0,0.8,0,1.2-0.1c0.4,0,0.7-0.1,1.1-0.1l0.1,1.1
		c-0.5,0.1-0.9,0.1-1.3,0.1c-0.4,0-0.9,0.1-1.5,0.1c-0.5,0-1.1,0-1.8,0.1c-0.7,0-1.5,0-2.4,0v-5.8h5.9V46h-4.5v1.2h4.2V48.3z
		 M28.8,57.6v-3.5h6.7v-1.2h-6.8v-1.2h8.2v3.5h-6.7v1.2h7.1v1.2H28.8z M35.5,51v-3h-2.4v-1.2h2.4v-2.5h1.4V51H35.5z"/>
	<path d="M41.3,45.7v-1.4h1.4v1.4H45v1.2h-6.1v-1.2H41.3z M42,51.4c-0.4,0-0.8,0-1.1-0.1c-0.3-0.1-0.6-0.2-0.9-0.4
		c-0.2-0.2-0.4-0.4-0.5-0.6c-0.1-0.2-0.2-0.5-0.2-0.7v-0.5c0-0.3,0.1-0.5,0.2-0.7c0.1-0.2,0.3-0.4,0.5-0.6c0.2-0.2,0.5-0.3,0.9-0.4
		c0.3-0.1,0.7-0.1,1.1-0.1c0.4,0,0.8,0,1.1,0.1c0.3,0.1,0.6,0.2,0.9,0.4c0.2,0.2,0.4,0.4,0.5,0.6c0.1,0.2,0.2,0.5,0.2,0.7v0.5
		c0,0.3-0.1,0.5-0.2,0.7c-0.1,0.2-0.3,0.4-0.5,0.6s-0.5,0.3-0.9,0.4C42.8,51.4,42.4,51.4,42,51.4z M42,48.4c-0.4,0-0.8,0.1-1.1,0.2
		c-0.3,0.2-0.4,0.4-0.4,0.6v0.2c0,0.3,0.1,0.5,0.4,0.6c0.3,0.2,0.6,0.2,1.1,0.2c0.4,0,0.8-0.1,1.1-0.2c0.3-0.2,0.4-0.4,0.4-0.6v-0.2
		c0-0.3-0.1-0.5-0.4-0.6C42.8,48.4,42.4,48.4,42,48.4z M41.5,57.6v-3.3h7v-1.1h-7.1v-1.1h8.4v3.3h-7v1.1h7.3v1.1H41.5z M47.5,51.4
		h-1.3V49H45v-1.2h1.2v-3.2h1.3V51.4z M48.5,44.4h1.3v7h-1.3V44.4z"/>
	<path d="M63.5,54.5v1.2h-12v-1.2H63.5z M57.5,49.3c-0.1,0.2-0.3,0.4-0.5,0.6c-0.3,0.2-0.7,0.5-1.1,0.8c-0.4,0.3-0.9,0.5-1.3,0.8
		c-0.5,0.3-1,0.6-1.6,0.9l-0.7-1.1c0.6-0.3,1.1-0.6,1.6-0.9c0.5-0.3,0.9-0.6,1.4-0.9c0.3-0.2,0.6-0.4,0.8-0.6
		c0.2-0.2,0.4-0.4,0.5-0.6c0.1-0.2,0.2-0.5,0.2-0.7c0-0.3,0.1-0.6,0.1-0.9v-1.4h1.4v1.4c0,0.4,0,0.7,0.1,0.9c0,0.3,0.1,0.5,0.2,0.7
		c0.1,0.2,0.3,0.4,0.5,0.6c0.2,0.2,0.5,0.4,0.9,0.7c0.4,0.3,0.9,0.6,1.3,0.8c0.4,0.3,0.9,0.5,1.5,0.8l-0.7,1.1
		c-0.5-0.3-1-0.6-1.5-0.9c-0.5-0.3-1-0.6-1.4-0.8c-0.5-0.3-0.8-0.6-1.1-0.8C57.8,49.7,57.6,49.5,57.5,49.3L57.5,49.3z"/>
	<path d="M68.5,46.8h-3.6v-1.2h5v2.8c0,0.1,0,0.2,0,0.3c0,0.1,0,0.2,0,0.3h1.8v-4.4H73v12.2h-1.4v-6.6h-1.9c-0.1,0.4-0.2,0.7-0.4,1
		c-0.2,0.3-0.5,0.7-0.8,1c-0.3,0.3-0.8,0.7-1.3,1.1c-0.5,0.4-1.1,0.8-1.9,1.3l-0.8-1.1c0.7-0.4,1.2-0.8,1.7-1.1
		c0.5-0.3,0.8-0.7,1.1-1c0.3-0.3,0.5-0.6,0.7-0.8c0.2-0.3,0.3-0.5,0.3-0.8l-3.7,0.1l0-1.2l3.9-0.1V46.8z M75.7,57.5h-1.4V44.4h1.4
		V57.5z"/>
	<path d="M86.6,57.5v-7.3h-2.5v0.3c0,0.6-0.1,1.2-0.2,1.6s-0.4,0.9-0.7,1.2c-0.3,0.3-0.6,0.5-1,0.7c-0.4,0.2-0.8,0.2-1.3,0.2
		s-0.9-0.1-1.3-0.2c-0.4-0.2-0.7-0.4-1-0.7c-0.3-0.3-0.5-0.7-0.7-1.2c-0.2-0.5-0.2-1-0.2-1.6v-1.5c0-0.6,0.1-1.2,0.2-1.6
		c0.2-0.5,0.4-0.9,0.7-1.2c0.3-0.3,0.6-0.6,1-0.7c0.4-0.2,0.8-0.2,1.3-0.2c0.5,0,0.9,0.1,1.3,0.2c0.4,0.2,0.7,0.4,1,0.7
		c0.3,0.3,0.5,0.7,0.7,1.2c0.2,0.5,0.3,1,0.3,1.6h2.5v-4.6H88v13.1H86.6z M80.8,53.1c0.3,0,0.5,0,0.7-0.1c0.2-0.1,0.4-0.2,0.6-0.5
		c0.2-0.2,0.3-0.5,0.4-0.8c0.1-0.3,0.2-0.8,0.2-1.3v-1.1c0-0.5-0.1-0.9-0.2-1.3c-0.1-0.3-0.3-0.6-0.4-0.8c-0.2-0.2-0.4-0.4-0.6-0.5
		c-0.2-0.1-0.5-0.1-0.7-0.1c-0.3,0-0.5,0-0.7,0.1c-0.2,0.1-0.4,0.2-0.6,0.5c-0.2,0.2-0.3,0.5-0.4,0.8c-0.1,0.3-0.2,0.8-0.2,1.3v1.1
		c0,0.5,0.1,0.9,0.2,1.3c0.1,0.3,0.3,0.6,0.4,0.8c0.2,0.2,0.4,0.4,0.6,0.5C80.3,53,80.6,53.1,80.8,53.1z"/>
	<path d="M12.4,69.9v1.2h-12v-1.2h5.3v-2.8h1.4v2.8H12.4z M6.4,64.5c-0.1,0.2-0.3,0.4-0.5,0.6c-0.3,0.2-0.7,0.5-1.1,0.8
		c-0.4,0.3-0.9,0.5-1.3,0.8s-1,0.6-1.6,0.9l-0.7-1.1c0.6-0.3,1.1-0.6,1.6-0.9c0.5-0.3,0.9-0.6,1.4-0.9c0.3-0.2,0.6-0.4,0.8-0.6
		c0.2-0.2,0.4-0.4,0.5-0.6c0.1-0.2,0.2-0.5,0.2-0.7c0-0.3,0.1-0.6,0.1-0.9v-1.3h1.4v1.3c0,0.4,0,0.7,0.1,0.9c0,0.3,0.1,0.5,0.2,0.7
		c0.1,0.2,0.3,0.4,0.5,0.6c0.2,0.2,0.5,0.4,0.9,0.7c0.4,0.3,0.9,0.6,1.3,0.8c0.4,0.3,0.9,0.5,1.5,0.8L11,67.6
		c-0.5-0.3-1-0.6-1.5-0.9c-0.5-0.3-1-0.6-1.4-0.8c-0.5-0.3-0.8-0.6-1.1-0.8C6.7,64.8,6.5,64.6,6.4,64.5L6.4,64.5z"/>
	<path d="M25.2,69.9v1.2h-12v-1.2H25.2z M24,66.3v1.2h-9.5v-1.2h1.8V62h-1.7v-1.2h9.3V62h-1.7v4.2H24z M17.7,66.3h3.1V62h-3.1V66.3z
		"/>
	<path d="M38,69.9v1.2H26v-1.2H38z M36.4,67.8h-8.8v-7h8.6v1.2H29v1.7h7.1v1.2H29v1.7h7.4V67.8z"/>
	<path d="M41.5,72v-4.5c-0.4,0-0.8,0-1.3,0c-0.4,0-0.9,0-1.5,0v-1.2c0.7,0,1.4,0,2,0c0.6,0,1.1,0,1.7,0c0.5,0,1.1,0,1.6,0
		c0.5,0,1.1,0,1.7-0.1l0.1,1.2c-0.5,0-1,0.1-1.4,0.1c-0.4,0-0.9,0-1.3,0.1V72H41.5z M42.2,65.5c-0.5,0-1-0.1-1.3-0.2
		c-0.4-0.1-0.7-0.3-0.9-0.6c-0.2-0.2-0.4-0.5-0.5-0.8c-0.1-0.3-0.2-0.6-0.2-0.8v-0.5c0-0.3,0.1-0.6,0.2-0.8c0.1-0.3,0.3-0.5,0.5-0.8
		c0.2-0.2,0.6-0.4,0.9-0.6s0.8-0.2,1.3-0.2c0.5,0,1,0.1,1.3,0.2c0.4,0.1,0.7,0.3,0.9,0.6c0.2,0.2,0.4,0.5,0.5,0.8
		c0.1,0.3,0.2,0.6,0.2,0.8v0.5c0,0.3-0.1,0.6-0.2,0.8c-0.1,0.3-0.3,0.5-0.5,0.8c-0.2,0.2-0.6,0.4-0.9,0.6
		C43.2,65.4,42.7,65.5,42.2,65.5z M42.2,64.4c0.3,0,0.5,0,0.7-0.1c0.2-0.1,0.4-0.2,0.5-0.3c0.1-0.1,0.2-0.3,0.3-0.4
		c0.1-0.2,0.1-0.3,0.1-0.5v-0.3c0-0.1,0-0.3-0.1-0.5c-0.1-0.2-0.2-0.3-0.3-0.4s-0.3-0.2-0.5-0.3c-0.2-0.1-0.5-0.1-0.8-0.1
		c-0.3,0-0.5,0-0.8,0.1c-0.2,0.1-0.4,0.2-0.5,0.3c-0.1,0.1-0.2,0.3-0.3,0.4c-0.1,0.2-0.1,0.3-0.1,0.5V63c0,0.1,0,0.3,0.1,0.5
		c0.1,0.2,0.2,0.3,0.3,0.4c0.1,0.1,0.3,0.2,0.5,0.3C41.7,64.3,41.9,64.4,42.2,64.4z M46.3,60h1.4v12.5h-1.4v-2.9h-2.2v-1.2h2.2V60z
		 M50.2,72.9h-1.4V59.8h1.4V72.9z"/>
	<path d="M61.1,72.9v-7.3h-2.5v0.3c0,0.6-0.1,1.2-0.2,1.6c-0.2,0.5-0.4,0.9-0.7,1.2c-0.3,0.3-0.6,0.5-1,0.7
		c-0.4,0.2-0.8,0.2-1.3,0.2s-0.9-0.1-1.3-0.2c-0.4-0.2-0.7-0.4-1-0.7c-0.3-0.3-0.5-0.7-0.7-1.2c-0.2-0.5-0.2-1-0.2-1.6v-1.5
		c0-0.6,0.1-1.2,0.2-1.6c0.2-0.5,0.4-0.9,0.7-1.2c0.3-0.3,0.6-0.6,1-0.7c0.4-0.2,0.8-0.2,1.3-0.2c0.5,0,0.9,0.1,1.3,0.2
		c0.4,0.2,0.7,0.4,1,0.7c0.3,0.3,0.5,0.7,0.7,1.2c0.2,0.5,0.3,1,0.3,1.6h2.5v-4.6h1.4v13.1H61.1z M55.3,68.4c0.3,0,0.5,0,0.7-0.1
		c0.2-0.1,0.4-0.2,0.6-0.5c0.2-0.2,0.3-0.5,0.4-0.8c0.1-0.3,0.2-0.8,0.2-1.3v-1.1c0-0.5-0.1-0.9-0.2-1.3c-0.1-0.3-0.3-0.6-0.4-0.8
		c-0.2-0.2-0.4-0.4-0.6-0.5c-0.2-0.1-0.5-0.1-0.7-0.1c-0.3,0-0.5,0-0.7,0.1c-0.2,0.1-0.4,0.2-0.6,0.5c-0.2,0.2-0.3,0.5-0.4,0.8
		c-0.1,0.3-0.2,0.8-0.2,1.3v1.1c0,0.5,0.1,0.9,0.2,1.3c0.1,0.3,0.3,0.6,0.4,0.8c0.2,0.2,0.4,0.4,0.6,0.5
		C54.8,68.4,55,68.4,55.3,68.4z"/>
	<path d="M71.8,66.3c-0.1,0.2-0.2,0.3-0.3,0.5c-0.1,0.2-0.3,0.4-0.5,0.6c-0.3,0.3-0.6,0.7-1,1c-0.4,0.4-0.8,0.8-1.3,1.2l-0.9-1
		c0.9-0.8,1.6-1.5,2.2-2.2c0.2-0.2,0.4-0.5,0.5-0.7c0.1-0.2,0.3-0.4,0.3-0.6c0.1-0.2,0.1-0.4,0.2-0.6c0-0.2,0-0.4,0-0.7v-3.2h1.4
		v3.2c0,0.3,0,0.5,0.1,0.8c0,0.2,0.1,0.4,0.2,0.6c0.1,0.2,0.2,0.4,0.3,0.6c0.1,0.2,0.3,0.4,0.5,0.7c0.3,0.3,0.6,0.7,1,1
		c0.3,0.3,0.7,0.7,1.1,1l-0.9,1c-0.5-0.5-0.9-0.8-1.2-1.2c-0.3-0.3-0.6-0.7-0.9-0.9c-0.2-0.2-0.4-0.4-0.5-0.6
		C72,66.6,71.9,66.4,71.8,66.3L71.8,66.3z M77.2,72.9V59.8h1.4v13.1H77.2z"/>
	<path d="M88.2,62.3h-7.6v-1.2h3.1v-1.5h1.4v1.5h3.1V62.3z M84.4,67.5c-0.6,0-1-0.1-1.4-0.2c-0.4-0.1-0.7-0.3-0.9-0.5
		c-0.2-0.2-0.4-0.4-0.5-0.7c-0.1-0.3-0.2-0.5-0.2-0.7v-0.4c0-0.2,0.1-0.5,0.2-0.7c0.1-0.3,0.3-0.5,0.5-0.7c0.2-0.2,0.6-0.4,0.9-0.5
		c0.4-0.1,0.9-0.2,1.4-0.2c0.6,0,1,0.1,1.4,0.2c0.4,0.1,0.7,0.3,0.9,0.5c0.2,0.2,0.4,0.4,0.5,0.7c0.1,0.3,0.2,0.5,0.2,0.7v0.4
		c0,0.2-0.1,0.5-0.2,0.7c-0.1,0.3-0.3,0.5-0.5,0.7c-0.2,0.2-0.6,0.4-0.9,0.5C85.5,67.4,85,67.5,84.4,67.5z M84.4,66.4
		c0.3,0,0.6,0,0.8-0.1s0.4-0.2,0.5-0.3c0.1-0.1,0.2-0.2,0.3-0.4s0.1-0.2,0.1-0.4V65c0-0.1,0-0.2-0.1-0.4c-0.1-0.1-0.2-0.2-0.3-0.4
		c-0.1-0.1-0.3-0.2-0.5-0.3c-0.2-0.1-0.5-0.1-0.8-0.1c-0.3,0-0.6,0-0.8,0.1c-0.2,0.1-0.4,0.2-0.5,0.3c-0.1,0.1-0.2,0.2-0.3,0.4
		c-0.1,0.1-0.1,0.2-0.1,0.4v0.2c0,0.1,0,0.2,0.1,0.4s0.2,0.2,0.3,0.4c0.1,0.1,0.3,0.2,0.5,0.3C83.8,66.3,84.1,66.4,84.4,66.4z
		 M91.4,68.3v4.5h-8.2v-4.5H91.4z M84.7,71.6H90v-2.1h-5.4V71.6z M90,67.7V65h-1.9v-1.2H90v-4h1.4v7.9H90z"/>
	<path d="M93.6,65.8H95v-4.1h-1.2v-1.2h7.1v1.2h-1.2v4c0.3,0,0.6,0,0.9-0.1c0.3,0,0.6,0,0.9-0.1l0.1,1.1c-0.4,0-0.9,0.1-1.3,0.1
		c-0.4,0-1,0.1-1.5,0.1c-0.6,0-1.3,0-2.1,0c-0.8,0-1.8,0-2.9,0V65.8z M96.2,70.2c0-0.3,0.1-0.7,0.3-1c0.2-0.3,0.4-0.6,0.8-0.8
		c0.3-0.2,0.8-0.4,1.3-0.5c0.5-0.1,1.1-0.2,1.7-0.2c0.6,0,1.2,0.1,1.7,0.2c0.5,0.1,0.9,0.3,1.3,0.5c0.3,0.2,0.6,0.5,0.8,0.8
		c0.2,0.3,0.3,0.6,0.3,1v0.6c0,0.3-0.1,0.7-0.3,1c-0.2,0.3-0.5,0.6-0.8,0.8c-0.3,0.2-0.8,0.4-1.3,0.5c-0.5,0.1-1.1,0.2-1.7,0.2
		c-0.6,0-1.2-0.1-1.7-0.2c-0.5-0.1-0.9-0.3-1.3-0.5c-0.3-0.2-0.6-0.5-0.8-0.8c-0.2-0.3-0.3-0.6-0.3-1V70.2z M98.3,65.8v-4.1h-2v4.1
		L98.3,65.8z M102.9,70.3c0-0.2-0.1-0.3-0.2-0.5c-0.1-0.2-0.3-0.3-0.5-0.4c-0.2-0.1-0.5-0.2-0.8-0.3c-0.3-0.1-0.7-0.1-1.1-0.1
		s-0.8,0-1.1,0.1c-0.3,0.1-0.6,0.2-0.8,0.3c-0.2,0.1-0.4,0.3-0.5,0.4c-0.1,0.2-0.2,0.3-0.2,0.5v0.3c0,0.2,0.1,0.3,0.2,0.5
		c0.1,0.2,0.3,0.3,0.5,0.4c0.2,0.1,0.5,0.2,0.8,0.3c0.3,0.1,0.7,0.1,1.1,0.1s0.8,0,1.1-0.1c0.3-0.1,0.6-0.2,0.8-0.3
		c0.2-0.1,0.4-0.3,0.5-0.4c0.1-0.2,0.2-0.3,0.2-0.5V70.3z M102.8,67.6v-2.5H101v-1.2h1.9v-0.7H101v-1.2h1.9v-2.2h1.4v7.9H102.8z"/>
	<path d="M106.3,68.8c0.8-0.4,1.4-0.8,1.9-1.2c0.5-0.3,1-0.7,1.3-0.9c0.3-0.3,0.6-0.6,0.8-0.8c0.2-0.3,0.3-0.5,0.4-0.8
		c0.1-0.3,0.2-0.5,0.2-0.8c0-0.3,0-0.6,0-0.9v-1.3h-4.4V61h5.8v2.5c0,0.4,0,0.8,0,1.2c0,0.3-0.1,0.7-0.2,1c-0.1,0.3-0.3,0.6-0.5,0.9
		c-0.2,0.3-0.5,0.6-0.9,1c-0.4,0.3-0.9,0.7-1.5,1.1c-0.6,0.4-1.3,0.9-2.2,1.4L106.3,68.8z M118.3,65.8h-2v7h-1.4V59.8h1.4v4.8h2
		V65.8z"/>
	<path d="M122.1,64.9c0,0.1-0.1,0.3-0.2,0.4c-0.1,0.2-0.3,0.3-0.4,0.4c-0.2,0.2-0.5,0.5-0.8,0.8c-0.4,0.3-0.7,0.7-1.1,1l-0.9-1
		c0.4-0.4,0.9-0.8,1.2-1.1c0.4-0.4,0.7-0.7,0.8-0.9c0.2-0.2,0.3-0.4,0.4-0.5c0.1-0.2,0.2-0.3,0.2-0.5c0.1-0.2,0.1-0.3,0.1-0.5
		c0-0.2,0-0.4,0-0.6v-2.1h1.4v2c0,0.2,0,0.4,0,0.6c0,0.2,0.1,0.4,0.1,0.5c0.1,0.2,0.1,0.3,0.2,0.5c0.1,0.2,0.2,0.4,0.4,0.5
		c0.2,0.3,0.5,0.5,0.8,0.8c0.3,0.3,0.6,0.5,1,0.8l-0.9,0.9c-0.3-0.3-0.6-0.5-0.9-0.8s-0.5-0.5-0.7-0.7c-0.2-0.2-0.3-0.3-0.5-0.5
		C122.2,65.1,122.2,65,122.1,64.9L122.1,64.9z M122.9,71.5h7.4v1.2h-8.8v-4.3h1.4V71.5z M127.5,68.7h-1.3v-4.8h-1.9v-1.2h1.9v-2.8
		h1.3V68.7z M128.6,59.8h1.3v9.3h-1.3V59.8z"/>
	<path d="M134,62v2.5h4.1v1.2H134v2.7h1.2c0.9,0,1.7,0,2.4-0.1c0.7,0,1.4-0.1,2.1-0.2l0.1,1.2c-0.4,0.1-0.8,0.1-1.1,0.1
		c-0.4,0-0.8,0.1-1.2,0.1c-0.4,0-0.8,0-1.2,0c-0.4,0-0.9,0-1.4,0h-2.3v-8.8h6V62H134z M141.2,72.9v-7.1h-2.4v-1.2h2.4v-4.7h1.4v13.1
		H141.2z"/>
</g>
</svg>
