<?xml version="1.0" encoding="utf-8"?>
<!-- Generator: Adobe Illustrator 27.9.0, SVG Export Plug-In . SVG Version: 6.00 Build 0)  -->
<svg version="1.1" id="Layer_1" xmlns="http://www.w3.org/2000/svg" xmlns:xlink="http://www.w3.org/1999/xlink" x="0px" y="0px"
	 viewBox="0 0 84.1 80.5" style="enable-background:new 0 0 84.1 80.5;" xml:space="preserve">
<style type="text/css">
	.st0{opacity:0.8;fill:#FF1D26;}
	.st1{fill:#FFFFFF;}
</style>
<polygon class="st0" points="84.1,1 84.1,80.5 4.3,80.5 "/>
<g>
	<path class="st1" d="M54.6,43.2v4.9c3.5-2.1,6.8-4.6,9.9-7.3V33C61.4,37,58,40.3,54.6,43.2z"/>
	<path class="st1" d="M54.6,63.8h9.9V51.2c-3.1,2-6.4,3.7-9.9,5.2V63.8z"/>
	<path class="st1" d="M54.6,53.7c3.5-1.6,6.8-3.4,9.9-5.5v-5.7c-3.1,2.7-6.4,5-9.9,7.1V53.7z"/>
	<path class="st1" d="M54.6,24.2v18.1c3.5-2.9,6.8-6.4,9.9-10.5v-7.6H54.6z"/>
	<path class="st1" d="M41.4,55.6c-2.7,0.9-5.6,1.8-8.5,2.4c0.3,0.7,0.7,1.3,1.2,1.9c5.1-0.8,10-1.9,14.5-3.5v-0.1c0,0-0.1,0-1.2,0
		C44.4,56.4,42.6,56.3,41.4,55.6z"/>
	<path class="st1" d="M39.9,52.2c-2.7,1.2-5.4,2.2-8,2.9c0.1,0.6,0.2,1.1,0.4,1.6c2.8-0.6,5.5-1.4,8.1-2.2
		C40.2,54,40,53.2,39.9,52.2z"/>
	<path class="st1" d="M44.3,63.8c3.6,0,4.3-0.3,4.3-0.3v-5.3c-4.1,1.4-8.5,2.4-13.1,3.2C37.6,62.9,40.5,63.8,44.3,63.8z"/>
	<path class="st1" d="M39.8,26.2l-13.9,15h5.7V52c0,0.8,0.1,1.6,0.2,2.4c2.7-0.8,5.4-1.8,8-3c0-0.6,0-1.2,0-1.9v-8.3h8.8v-7.5h-8.8
		V26.2z"/>
	<path class="st1" d="M2,61.3v2.5h15.2c1.7,0,3.3-0.6,4.6-1.5c-1.2,0-2.4,0.1-3.6,0.1C11.6,62.3,5.9,61.8,2,61.3z"/>
	<path class="st1" d="M10.1,58.2c-3.1,0-5.9-0.2-8.1-0.4v0.8c5.1,0.6,13.2,1.1,22.5,0c0.2-0.6,0.4-1.2,0.4-1.8
		c-0.6,0.1-1.2,0.2-1.8,0.3C18.4,58,13.9,58.2,10.1,58.2z"/>
	<path class="st1" d="M17.2,45.7c0,0-7.2,0-7.2,0c-1.6,0-2.9-1.3-3-2.9v-0.1c0-1.6,1.4-3,3-3h12l2,0v-3c0-0.9,0-3,0-3l-2,0H8.9
		c-4.3,0-7.9,3.5-7.9,7.8c0,0,0,2.4,0,2.4c0,4.3,3.5,7.8,7.8,7.8c0,0,7.3,0,7.3,0c1.6,0,2.9,1.3,3,2.9v0.2c0,0.9-0.5,1.7-1.1,2.2
		c2.3-0.2,4.7-0.6,7.1-1c0,0,0-0.1,0-0.1c0,0,0,0,0,0c0,0,0,0,0,0v-2.3c0,0,0,0,0,0c0,0,0,0,0,0C25,49.3,21.5,45.8,17.2,45.7z"/>
	<path class="st1" d="M2,59.6v0.8c4.8,0.7,12.2,1.3,20.8,1c0.5-0.5,1-1.1,1.3-1.8c-3.9,0.5-7.6,0.6-10.9,0.6
		C8.8,60.2,4.9,59.9,2,59.6z"/>
</g>
</svg>
