<?xml version="1.0" encoding="utf-8"?>
<!-- Generator: Adobe Illustrator 27.9.0, SVG Export Plug-In . SVG Version: 6.00 Build 0)  -->
<svg version="1.1" id="Layer_1" xmlns="http://www.w3.org/2000/svg" xmlns:xlink="http://www.w3.org/1999/xlink" x="0px" y="0px"
	 viewBox="0 0 260 50" style="enable-background:new 0 0 260 50;" xml:space="preserve">
<style type="text/css">
	.st0{fill:#1D396A;}
	.st1{fill:#ED1C24;}
	.st2{fill:url(#SVGID_1_);}
	.st3{fill:url(#SVGID_00000161592562968081401910000009738607832050849712_);}
	.st4{fill:url(#SVGID_00000044159660401711569510000009730667897416223360_);}
	.st5{fill:url(#SVGID_00000000927829266744016520000008817511220496674710_);}
</style>
<g>
	<path d="M95.2,13.4h-5.8v7.3h1.1c1.1,0,2.2,0,3.2-0.1s1.9-0.2,2.9-0.4l0.2,1.5c-0.9,0.2-1.9,0.3-3,0.4s-2.3,0.1-3.6,0.1h-2.4V11.9
		h7.5L95.2,13.4L95.2,13.4z M98,26.3V10.5h1.7v15.9H98V26.3z"/>
	<path d="M107.4,18.5c-0.1,0.2-0.2,0.4-0.4,0.6s-0.4,0.5-0.7,0.8c-0.4,0.4-0.8,0.8-1.2,1.2s-0.9,0.9-1.5,1.5l-1.1-1.2
		c0.5-0.5,1-0.9,1.4-1.3s0.8-0.9,1.2-1.3c0.3-0.3,0.5-0.6,0.7-0.8c0.2-0.3,0.3-0.5,0.4-0.7s0.2-0.5,0.2-0.7c0-0.3,0.1-0.5,0.1-0.9
		v-2.3h-3.4v-1.5h8.4v1.5h-3.3v2.3c0,0.3,0,0.6,0.1,0.9c0,0.3,0.1,0.5,0.2,0.7s0.2,0.5,0.4,0.7s0.4,0.5,0.7,0.9
		c0.4,0.4,0.7,0.8,1.1,1.2c0.4,0.4,0.8,0.8,1.4,1.2l-1.1,1.2c-0.6-0.5-1.1-1-1.5-1.4s-0.8-0.8-1.1-1.1c-0.2-0.3-0.5-0.5-0.7-0.7
		C107.6,18.9,107.5,18.7,107.4,18.5L107.4,18.5z M113.7,26.3V10.5h1.7v15.9h-1.7V26.3z"/>
	<path d="M125.3,15.2h-5.1v1.5c0.8,0,1.6,0,2.2,0s1.2,0,1.7-0.1c0.5,0,1-0.1,1.4-0.1s0.9-0.1,1.4-0.2l0.2,1.3
		c-0.6,0.1-1.1,0.1-1.6,0.2c-0.5,0-1.1,0.1-1.8,0.1c-0.7,0-1.4,0.1-2.2,0.1s-1.8,0-2.9,0v-7h7.2v1.4h-5.5v1.4h5.1L125.3,15.2
		L125.3,15.2z M121,26.4v-4.2h8.2v-1.4H121v-1.4h9.9v4.2h-8.2V25h8.6v1.4H121z M129.1,18.5v-3.6h-2.9v-1.5h2.9v-3h1.7v8.1H129.1z"/>
	<path d="M136.2,12v-1.8h1.7V12h2.8v1.4h-7.4V12H136.2z M137,19c-0.5,0-1-0.1-1.4-0.2s-0.8-0.3-1-0.5c-0.3-0.2-0.5-0.4-0.7-0.7
		c-0.1-0.3-0.2-0.6-0.2-0.9v-0.6c0-0.3,0.1-0.6,0.2-0.9c0.1-0.3,0.4-0.5,0.7-0.7s0.6-0.4,1-0.5c0.4,0,0.9,0,1.4,0s1,0.1,1.4,0.2
		c0.4,0.1,0.8,0.3,1,0.5c0.3,0.2,0.5,0.4,0.7,0.7s0.2,0.6,0.2,0.9v0.6c0,0.3-0.1,0.6-0.2,0.9c-0.2,0.3-0.4,0.5-0.7,0.7
		s-0.6,0.4-1,0.5C138,19,137.5,19,137,19z M137,15.3c-0.5,0-1,0.1-1.3,0.3s-0.5,0.4-0.5,0.8v0.3c0,0.3,0.2,0.6,0.5,0.8
		c0.3,0.2,0.8,0.3,1.3,0.3s1-0.1,1.3-0.3c0.3-0.2,0.5-0.4,0.5-0.8v-0.3c0-0.3-0.2-0.6-0.5-0.8S137.5,15.3,137,15.3z M136.4,26.4v-4
		h8.5v-1.3h-8.6v-1.4h10.2v4H138V25h8.9v1.4H136.4z M143.7,19h-1.6v-3h-1.5v-1.4h1.5v-3.9h1.6V19z M144.9,10.5h1.6V19h-1.6V10.5z"/>
	<path d="M163.1,22.8v1.4h-14.6v-1.4H163.1z M155.8,16.5c-0.1,0.2-0.3,0.4-0.6,0.7s-0.8,0.6-1.4,1c-0.5,0.3-1,0.7-1.6,1
		s-1.2,0.7-1.9,1.1l-0.8-1.3c0.7-0.4,1.3-0.7,1.9-1.1c0.6-0.3,1.1-0.7,1.7-1.1c0.4-0.3,0.7-0.5,1-0.8c0.3-0.2,0.5-0.5,0.6-0.8
		s0.2-0.6,0.3-0.9c0.1-0.3,0.1-0.7,0.1-1.1v-1.7h1.7v1.7c0,0.4,0,0.8,0.1,1.1c0,0.3,0.1,0.6,0.3,0.9c0.1,0.3,0.4,0.5,0.6,0.8
		c0.3,0.3,0.6,0.5,1.1,0.8c0.5,0.4,1.1,0.7,1.6,1s1.1,0.6,1.8,1l-0.8,1.3c-0.6-0.4-1.3-0.7-1.9-1.1c-0.6-0.3-1.2-0.7-1.7-1
		c-0.6-0.4-1-0.7-1.4-1S155.9,16.7,155.8,16.5L155.8,16.5z"/>
	<path d="M169.1,13.4h-4.4V12h6v3.4c0,0.1,0,0.3,0,0.4c0,0.1,0,0.3,0,0.4h2.1v-5.3h1.7v14.8h-1.7v-7.9h-2.3
		c-0.1,0.4-0.3,0.9-0.5,1.2c-0.2,0.4-0.6,0.8-1,1.2c-0.4,0.4-0.9,0.9-1.6,1.3c-0.6,0.5-1.4,1-2.3,1.6l-0.9-1.3
		c0.8-0.5,1.5-0.9,2-1.4s1-0.8,1.4-1.2c0.4-0.4,0.6-0.7,0.8-1s0.3-0.6,0.4-0.9l-4.5,0.2l-0.1-1.4l4.7-0.1v-2.6H169.1z M177.8,26.3
		h-1.7V10.5h1.7V26.3z"/>
	<path d="M191.1,26.3v-8.8H188v0.4c0,0.8-0.1,1.4-0.3,2s-0.5,1-0.8,1.4c-0.4,0.4-0.8,0.7-1.3,0.9c-0.5,0.2-1,0.3-1.6,0.3
		s-1.1-0.1-1.6-0.3c-0.5-0.2-0.9-0.5-1.3-0.9c-0.4-0.4-0.6-0.9-0.8-1.4c-0.2-0.6-0.3-1.2-0.3-2v-1.8c0-0.8,0.1-1.4,0.3-2
		s0.5-1.1,0.8-1.4c0.3-0.4,0.8-0.7,1.3-0.9s1-0.3,1.6-0.3s1.1,0.1,1.6,0.3s0.9,0.5,1.3,0.9c0.4,0.4,0.6,0.8,0.8,1.4
		c0.2,0.6,0.3,1.2,0.3,1.9h3.1v-5.6h1.7v15.9H191.1z M184,21c0.3,0,0.6-0.1,0.9-0.2c0.3-0.1,0.5-0.3,0.7-0.6c0.2-0.3,0.4-0.6,0.5-1
		s0.2-0.9,0.2-1.5v-1.3c0-0.6-0.1-1.1-0.2-1.5c-0.1-0.4-0.3-0.8-0.5-1c-0.2-0.3-0.5-0.4-0.7-0.6c-0.3-0.1-0.6-0.2-0.9-0.2
		c-0.3,0-0.6,0.1-0.9,0.2c-0.3,0.1-0.5,0.3-0.7,0.6s-0.4,0.6-0.5,1s-0.2,0.9-0.2,1.5v1.3c0,0.6,0.1,1.1,0.2,1.5
		c0.1,0.4,0.3,0.8,0.5,1c0.2,0.3,0.5,0.4,0.7,0.6C183.4,20.9,183.7,21,184,21z"/>
	<path d="M101.2,45v1.4H86.6V45H93v-3.4h1.7V45H101.2z M93.9,38.5c-0.1,0.2-0.3,0.4-0.6,0.7s-0.8,0.6-1.4,1c-0.5,0.3-1,0.7-1.6,1
		s-1.2,0.7-1.9,1.1L87.5,41c0.7-0.4,1.3-0.7,1.9-1.1c0.6-0.3,1.1-0.7,1.7-1.1c0.4-0.3,0.7-0.5,1-0.8s0.5-0.5,0.6-0.8
		s0.2-0.6,0.3-0.9c0.1-0.3,0.1-0.7,0.1-1.1v-1.5h1.7v1.5c0,0.4,0,0.8,0.1,1.1c0,0.3,0.1,0.6,0.3,0.9c0.1,0.3,0.4,0.5,0.6,0.8
		c0.3,0.3,0.6,0.5,1.1,0.8c0.5,0.4,1.1,0.7,1.6,1s1.1,0.6,1.8,1l-0.8,1.3c-0.6-0.4-1.3-0.7-1.9-1.1c-0.6-0.3-1.2-0.7-1.7-1
		c-0.6-0.4-1-0.7-1.4-1S94,38.7,93.9,38.5L93.9,38.5z"/>
	<path d="M116.6,45v1.4H102V45H116.6z M115.1,40.7v1.4h-11.5v-1.4h2.2v-5.1h-2.1v-1.4H115v1.4h-2.1v5.1H115.1z M107.5,40.7h3.7v-5.1
		h-3.7V40.7z"/>
	<path d="M132.1,45v1.4h-14.6V45H132.1z M130.3,42.4h-10.7v-8.5H130v1.4h-8.8v2.1h8.7v1.4h-8.7V41h9v1.4H130.3z"/>
	<path d="M136.4,47.6v-5.4c-0.5,0-1,0-1.6,0s-1.1,0-1.8,0v-1.5c0.9,0,1.7,0,2.4,0s1.4,0,2,0s1.3,0,1.9-0.1c0.6,0,1.3-0.1,2-0.1
		l0.1,1.4c-0.6,0.1-1.2,0.1-1.7,0.1s-1.1,0-1.6,0.1v5.5H136.4z M137.2,39.7c-0.6,0-1.2-0.1-1.6-0.3c-0.5-0.2-0.8-0.4-1.1-0.7
		s-0.5-0.6-0.7-0.9c-0.1-0.3-0.2-0.7-0.2-1v-0.6c0-0.3,0.1-0.7,0.2-1s0.4-0.6,0.7-0.9c0.3-0.3,0.7-0.5,1.1-0.7s1-0.3,1.6-0.3
		s1.2,0.1,1.6,0.3c0.5,0.2,0.8,0.4,1.1,0.7s0.5,0.6,0.7,0.9s0.2,0.7,0.2,1v0.6c0,0.3-0.1,0.7-0.2,1c-0.1,0.3-0.4,0.6-0.7,0.9
		c-0.3,0.3-0.7,0.5-1.1,0.7C138.4,39.6,137.9,39.7,137.2,39.7z M137.2,38.3c0.3,0,0.6-0.1,0.9-0.2c0.3-0.1,0.5-0.2,0.6-0.4
		s0.3-0.3,0.4-0.5c0.1-0.2,0.1-0.4,0.1-0.6v-0.3c0-0.2,0-0.4-0.1-0.6c-0.1-0.2-0.2-0.4-0.4-0.5s-0.4-0.3-0.6-0.4
		c-0.3-0.1-0.6-0.2-0.9-0.2c-0.4,0-0.7,0.1-0.9,0.2c-0.3,0.1-0.5,0.2-0.6,0.4c-0.2,0.2-0.3,0.3-0.4,0.5c-0.1,0.2-0.1,0.4-0.1,0.6
		v0.3c0,0.2,0,0.4,0.1,0.6c0.1,0.2,0.2,0.4,0.4,0.5s0.4,0.3,0.6,0.4C136.6,38.3,136.9,38.3,137.2,38.3z M142.2,33h1.7v15.2h-1.7
		v-3.5h-2.7v-1.4h2.7V33z M146.9,48.6h-1.7V32.7h1.7V48.6z"/>
	<path d="M160.1,48.6v-8.8H157v0.4c0,0.8-0.1,1.4-0.3,2s-0.5,1-0.8,1.4c-0.4,0.4-0.8,0.7-1.3,0.9s-1,0.3-1.6,0.3s-1.1-0.1-1.6-0.3
		s-0.9-0.5-1.3-0.9c-0.4-0.4-0.6-0.9-0.8-1.4c-0.2-0.6-0.3-1.2-0.3-2v-1.8c0-0.8,0.1-1.4,0.3-2s0.5-1.1,0.8-1.4
		c0.3-0.4,0.8-0.7,1.3-0.9s1-0.3,1.6-0.3s1.1,0.1,1.6,0.3s0.9,0.5,1.3,0.9c0.4,0.4,0.6,0.8,0.8,1.4c0.2,0.6,0.3,1.2,0.3,1.9h3.1
		v-5.6h1.7v15.9C161.8,48.6,160.1,48.6,160.1,48.6z M153.1,43.3c0.3,0,0.6-0.1,0.9-0.2c0.3-0.1,0.5-0.3,0.7-0.6s0.4-0.6,0.5-1
		s0.2-0.9,0.2-1.5v-1.3c0-0.6-0.1-1.1-0.2-1.5c-0.1-0.4-0.3-0.8-0.5-1c-0.2-0.3-0.5-0.4-0.7-0.6c-0.3-0.1-0.6-0.2-0.9-0.2
		c-0.3,0-0.6,0.1-0.9,0.2c-0.3,0.1-0.5,0.3-0.7,0.6s-0.4,0.6-0.5,1s-0.2,0.9-0.2,1.5V40c0,0.6,0.1,1.1,0.2,1.5
		c0.1,0.4,0.3,0.8,0.5,1c0.2,0.3,0.5,0.4,0.7,0.6C152.4,43.2,152.7,43.3,153.1,43.3z"/>
	<path d="M173.1,40.7c-0.1,0.2-0.2,0.4-0.4,0.6c-0.2,0.2-0.4,0.4-0.6,0.7c-0.4,0.4-0.8,0.8-1.2,1.3c-0.5,0.5-1,0.9-1.6,1.5l-1.1-1.2
		c1-0.9,1.9-1.8,2.7-2.7c0.3-0.3,0.5-0.6,0.7-0.8c0.2-0.3,0.3-0.5,0.4-0.7c0.1-0.2,0.2-0.5,0.2-0.8s0.1-0.5,0.1-0.9v-3.9h1.7v3.9
		c0,0.3,0,0.7,0.1,0.9c0,0.3,0.1,0.5,0.2,0.8c0.1,0.2,0.2,0.5,0.4,0.7s0.4,0.5,0.7,0.8c0.4,0.4,0.8,0.8,1.2,1.2s0.9,0.8,1.4,1.3
		l-1.1,1.2c-0.6-0.6-1.1-1-1.5-1.4s-0.8-0.8-1.1-1.1c-0.2-0.3-0.5-0.5-0.6-0.7S173.2,40.9,173.1,40.7L173.1,40.7z M179.6,48.6V32.7
		h1.7v15.9H179.6z"/>
	<path d="M193,35.8h-9.2v-1.4h3.7v-1.9h1.7v1.9h3.8V35.8z M188.4,42.1c-0.7,0-1.3-0.1-1.7-0.2c-0.5-0.2-0.9-0.4-1.1-0.6
		c-0.3-0.3-0.5-0.5-0.6-0.8s-0.2-0.6-0.2-0.9V39c0-0.3,0.1-0.6,0.2-0.9c0.1-0.3,0.3-0.6,0.6-0.8c0.3-0.3,0.7-0.5,1.1-0.6
		c0.5-0.2,1-0.2,1.7-0.2s1.3,0.1,1.7,0.2c0.5,0.2,0.9,0.4,1.1,0.6c0.3,0.3,0.5,0.5,0.6,0.8s0.2,0.6,0.2,0.9v0.5
		c0,0.3-0.1,0.6-0.2,0.9c-0.1,0.3-0.3,0.6-0.6,0.8c-0.3,0.3-0.7,0.5-1.1,0.6C189.7,42,189.1,42.1,188.4,42.1z M188.4,40.7
		c0.4,0,0.7,0,1-0.1s0.5-0.2,0.6-0.3s0.3-0.3,0.3-0.4s0.1-0.3,0.1-0.4v-0.3c0-0.1,0-0.3-0.1-0.4s-0.2-0.3-0.3-0.4
		c-0.2-0.1-0.4-0.2-0.6-0.3c-0.3-0.1-0.6-0.1-1-0.1s-0.7,0-1,0.1s-0.5,0.2-0.6,0.3c-0.2,0.1-0.3,0.3-0.3,0.4s-0.1,0.3-0.1,0.4v0.3
		c0,0.1,0,0.3,0.1,0.4s0.2,0.3,0.3,0.4s0.4,0.2,0.6,0.3C187.7,40.7,188,40.7,188.4,40.7z M196.9,43.1v5.5H187v-5.5H196.9z
		 M188.7,47.1h6.5v-2.6h-6.5V47.1z M195.2,42.4v-3.3h-2.3v-1.5h2.3v-4.9h1.7v9.6L195.2,42.4L195.2,42.4z"/>
	<path d="M199.5,40.1h1.6v-5h-1.5v-1.4h8.7v1.4h-1.5V40c0.4,0,0.7,0,1-0.1c0.3,0,0.7-0.1,1-0.1l0.1,1.4c-0.5,0-1.1,0.1-1.6,0.1
		s-1.2,0.1-1.9,0.1s-1.5,0-2.5,0.1c-1,0-2.1,0-3.5,0L199.5,40.1L199.5,40.1z M202.7,45.4c0-0.4,0.1-0.8,0.3-1.2s0.5-0.7,1-0.9
		c0.4-0.3,0.9-0.5,1.5-0.6s1.3-0.2,2-0.2c0.8,0,1.4,0.1,2,0.2c0.6,0.1,1.1,0.4,1.5,0.6c0.4,0.3,0.7,0.6,1,0.9
		c0.2,0.4,0.3,0.7,0.3,1.2v0.7c0,0.4-0.1,0.8-0.3,1.2s-0.5,0.7-1,0.9c-0.4,0.3-0.9,0.5-1.5,0.6s-1.3,0.2-2,0.2c-0.8,0-1.4-0.1-2-0.2
		c-0.6-0.1-1.1-0.4-1.5-0.6c-0.4-0.3-0.7-0.6-1-0.9c-0.2-0.4-0.3-0.7-0.3-1.2V45.4z M205.2,40v-4.9h-2.4v5L205.2,40z M210.8,45.6
		c0-0.2-0.1-0.4-0.2-0.6c-0.1-0.2-0.4-0.4-0.6-0.5c-0.3-0.2-0.6-0.3-1-0.4c-0.4-0.1-0.8-0.1-1.3-0.1s-0.9,0-1.3,0.1
		c-0.4,0.1-0.7,0.2-1,0.4s-0.5,0.3-0.6,0.5s-0.2,0.4-0.2,0.6V46c0,0.2,0.1,0.4,0.2,0.6c0.1,0.2,0.4,0.4,0.6,0.5
		c0.3,0.2,0.6,0.3,1,0.4c0.4,0.1,0.8,0.1,1.3,0.1s0.9,0,1.3-0.1c0.4-0.1,0.7-0.2,1-0.4s0.5-0.3,0.6-0.5s0.2-0.4,0.2-0.6V45.6z
		 M210.7,42.3v-3.1h-2.3v-1.5h2.3v-0.9h-2.3v-1.5h2.3v-2.6h1.7v9.5L210.7,42.3L210.7,42.3z"/>
	<path d="M214.9,43.8c0.9-0.5,1.7-1,2.3-1.4s1.2-0.8,1.6-1.1c0.4-0.3,0.7-0.7,1-1c0.2-0.3,0.4-0.6,0.5-0.9c0.1-0.3,0.2-0.6,0.2-1
		c0-0.3,0-0.7,0-1.1v-1.5h-5.4v-1.5h7.1v3c0,0.5,0,1,0,1.4s-0.1,0.8-0.2,1.2c-0.1,0.4-0.3,0.7-0.6,1.1s-0.6,0.7-1.1,1.2
		c-0.5,0.4-1.1,0.9-1.8,1.4s-1.6,1.1-2.7,1.7L214.9,43.8z M229.5,40.1H227v8.5h-1.7V32.7h1.7v5.9h2.4v1.5H229.5z"/>
	<path d="M234,39c0,0.1-0.1,0.3-0.3,0.5s-0.3,0.4-0.5,0.5c-0.2,0.3-0.6,0.6-1,1s-0.9,0.8-1.4,1.3l-1.1-1.2c0.5-0.5,1-0.9,1.5-1.4
		s0.8-0.8,1-1.1c0.2-0.2,0.3-0.4,0.4-0.6c0.1-0.2,0.2-0.4,0.3-0.6c0.1-0.2,0.1-0.4,0.1-0.6c0-0.2,0-0.5,0-0.7v-2.5h1.7V36
		c0,0.3,0,0.5,0,0.7s0.1,0.4,0.1,0.6c0.1,0.2,0.2,0.4,0.3,0.6s0.3,0.4,0.5,0.7c0.3,0.3,0.6,0.6,1,1c0.4,0.3,0.8,0.7,1.2,1l-1.1,1.1
		c-0.4-0.3-0.8-0.7-1.1-1s-0.6-0.6-0.8-0.8s-0.4-0.4-0.6-0.6C234.2,39.2,234.1,39.1,234,39L234,39z M235,47h9v1.5h-10.7v-5.2h1.7V47
		z M240.6,43.6H239v-5.9h-2.3v-1.5h2.3V33h1.6V43.6z M242,32.7h1.6V44H242V32.7z"/>
	<path d="M248.4,35.5v3h5V40h-5v3.3h1.5c1,0,2,0,2.9-0.1s1.7-0.1,2.5-0.3l0.2,1.4c-0.5,0.1-0.9,0.1-1.4,0.2s-0.9,0.1-1.4,0.1
		s-1,0-1.5,0.1c-0.5,0-1.1,0-1.7,0h-2.8V34h7.3v1.5H248.4z M257.2,48.6V40h-2.9v-1.5h2.9v-5.7h1.7v15.9L257.2,48.6L257.2,48.6z"/>
</g>
<g>
	<g>
		<path class="st0" d="M61.4,23.3v5.5c4-2.4,7.7-5.2,11.2-8.3v-8.8C69.1,16.3,65.4,20.1,61.4,23.3z"/>
		<path class="st0" d="M61.4,46.6h11.2V32.4c-3.5,2.2-7.2,4.2-11.2,5.9V46.6z"/>
		<path class="st0" d="M61.4,35.2c2.1-1,4.2-2,6.1-3.1c1.7-1,3.4-2,5.1-3.1v-6.4c-3.5,3-7.2,5.7-11.2,8V35.2z"/>
		<path class="st0" d="M61.4,1.8v20.4c3.9-3.3,7.7-7.2,11.2-11.8V1.8H61.4z"/>
	</g>
	<g>
		<path class="st0" d="M46.6,37.5c-3.1,1.1-6.3,2-9.7,2.7c0.4,0.7,0.9,1.4,1.4,2.1c0,0,0,0,0.1,0c0,0,0-0.1-0.1-0.1
			c5.8-0.9,11.3-2.2,16.4-3.9c0,0-0.1,0-1.3,0C50,38.3,47.9,38.3,46.6,37.5z"/>
		<path class="st0" d="M35.6,33.3c0,1,0.1,1.9,0.2,2.7c3-0.9,6.1-2,9.1-3.3c-0.1-0.7-0.1-1.4-0.1-2.2v-9.4h-9.2V33.3z"/>
		<path class="st0" d="M45.5,36.2C45.5,36.2,45.5,36.2,45.5,36.2c-0.3-0.7-0.5-1.5-0.6-2.7c-3.1,1.4-6.1,2.4-9,3.3
			c0.1,0.6,0.3,1.3,0.5,1.9C39.5,38,42.5,37.2,45.5,36.2C45.5,36.2,45.5,36.2,45.5,36.2z"/>
		<path class="st0" d="M49.8,46.6c4.1,0,4.9-0.4,4.9-0.4v-6c-4.7,1.5-9.6,2.8-14.8,3.6C42.2,45.6,45.5,46.6,49.8,46.6z"/>
		<polygon class="st0" points="44.8,20.7 44.8,21.1 54.7,21.1 54.7,12.6 44.8,12.6 		"/>
		<polygon class="st1" points="29,21.1 35.5,21.1 35.5,21 44.7,21 44.7,20.7 44.8,20.7 44.8,12.6 44.8,4.1 		"/>
	</g>
	<g>
		
			<linearGradient id="SVGID_1_" gradientUnits="userSpaceOnUse" x1="13.1606" y1="4.6836" x2="13.1606" y2="38.6908" gradientTransform="matrix(1 0 0 -1 0 51.2756)">
			<stop  offset="0" style="stop-color:#2073AE"/>
			<stop  offset="0.246" style="stop-color:#1C79B4"/>
			<stop  offset="0.583" style="stop-color:#128AC6"/>
			<stop  offset="0.971" style="stop-color:#01A6E3"/>
			<stop  offset="1" style="stop-color:#00A8E5"/>
		</linearGradient>
		<path class="st2" d="M2,43.8v2.8h17.2c1.9,0,3.7-0.6,5.2-1.7c-1.4,0-2.8,0.1-4.1,0.1C12.8,45,6.4,44.4,2,43.8z"/>
		
			<linearGradient id="SVGID_00000076588704295165207240000009536944529157395895_" gradientUnits="userSpaceOnUse" x1="14.9606" y1="4.6829" x2="14.9606" y2="38.6935" gradientTransform="matrix(1 0 0 -1 0 51.2756)">
			<stop  offset="0" style="stop-color:#2073AE"/>
			<stop  offset="0.246" style="stop-color:#1C79B4"/>
			<stop  offset="0.583" style="stop-color:#128AC6"/>
			<stop  offset="0.971" style="stop-color:#01A6E3"/>
			<stop  offset="1" style="stop-color:#00A8E5"/>
		</linearGradient>
		<path style="fill:url(#SVGID_00000076588704295165207240000009536944529157395895_);" d="M11.1,40.3c-3.5,0-6.6-0.2-9.1-0.4v0.9
			c5.8,0.7,15,1.3,25.5,0c0.2-0.6,0.4-1.3,0.5-2c-0.7,0.1-1.4,0.3-2.1,0.4C20.5,40,15.5,40.3,11.1,40.3z"/>
		
			<linearGradient id="SVGID_00000137121379812890149890000015581444517076990606_" gradientUnits="userSpaceOnUse" x1="14.3605" y1="4.6835" x2="14.3605" y2="38.6914" gradientTransform="matrix(1 0 0 -1 0 51.2756)">
			<stop  offset="0" style="stop-color:#2073AE"/>
			<stop  offset="0.246" style="stop-color:#1C79B4"/>
			<stop  offset="0.583" style="stop-color:#128AC6"/>
			<stop  offset="0.971" style="stop-color:#01A6E3"/>
			<stop  offset="1" style="stop-color:#00A8E5"/>
		</linearGradient>
		<path style="fill:url(#SVGID_00000137121379812890149890000015581444517076990606_);" d="M19.2,26.2H11c-1.8,0-3.3-1.5-3.4-3.3
			v-0.1c0-1.9,1.5-3.4,3.4-3.4h13.6h2.3V16c0-1,0-3.4,0-3.4h-2.3H9.7c-4.9,0-8.9,4-8.9,8.9v2.7c0,4.9,3.9,8.8,8.8,8.9h8.2
			c1.8,0,3.3,1.5,3.3,3.3v0.3c0,1-0.5,1.9-1.3,2.5c2.6-0.3,5.3-0.6,8.1-1.2c0.1-0.2,0.1-0.3,0.1-0.3v-2.6C28,30.2,24,26.2,19.2,26.2
			z"/>
		
			<linearGradient id="SVGID_00000064317663976206108300000005924105010285913998_" gradientUnits="userSpaceOnUse" x1="14.5105" y1="4.6831" x2="14.5105" y2="38.6943" gradientTransform="matrix(1 0 0 -1 0 51.2756)">
			<stop  offset="0" style="stop-color:#2073AE"/>
			<stop  offset="0.246" style="stop-color:#1C79B4"/>
			<stop  offset="0.583" style="stop-color:#128AC6"/>
			<stop  offset="0.971" style="stop-color:#01A6E3"/>
			<stop  offset="1" style="stop-color:#00A8E5"/>
		</linearGradient>
		<path style="fill:url(#SVGID_00000064317663976206108300000005924105010285913998_);" d="M2,41.9v0.9c5.4,0.7,13.8,1.5,23.6,1.1
			c0.6-0.6,1.1-1.3,1.5-2c-4.4,0.5-8.6,0.7-12.3,0.7C9.6,42.6,5.3,42.2,2,41.9z"/>
	</g>
</g>
</svg>
